# xmcd
#
# Track frame offsets: 
#        150
#        17004
#        34547
#        55247
#        71796
#        83082
#        99733
#        114188
#        126556
#
# Disc length: 2085 seconds
#
# Revision: 0
# Processed by: cddbd v1.5.2PL0 Copyright (c) Steve Scherf et al.
# Submitted via: ExactAudioCopyFreeDBPlugin 1.0
#
DISCID=73082309
DTITLE=Greg Arcade - It All Started With A Heartache
DYEAR=2018
DGENRE=Country
TTITLE0=Start Me Up
TTITLE1=Memphis Line
TTITLE2=It All Started With A Heartache
TTITLE3=Honky Tonk Gone
TTITLE4=Somebody Else You'd Rather Hold
TTITLE5=Silhouettes Of Rose
TTITLE6=Sometimes I Think Of You
TTITLE7=What We Had
TTITLE8=Change The Record
EXTD=
EXTT0=
EXTT1=
EXTT2=
EXTT3=
EXTT4=
EXTT5=
EXTT6=
EXTT7=
EXTT8=
PLAYORDER=
